<?xml version="1.0" encoding="UTF-8"?>
<!DOCTYPE svg PUBLIC "-//W3C//DTD SVG 1.1//EN" "http://www.w3.org/Graphics/SVG/1.1/DTD/svg11.dtd">
<!-- Creator: CorelDRAW X7 -->
<svg xmlns="http://www.w3.org/2000/svg" xml:space="preserve" width="1.88267in" height="0.26972in" version="1.1" style="shape-rendering:geometricPrecision; text-rendering:geometricPrecision; image-rendering:optimizeQuality; fill-rule:evenodd; clip-rule:evenodd"
viewBox="0 0 1642 235"
 xmlns:xlink="http://www.w3.org/1999/xlink">
 <defs>
  <style type="text/css">
   <![CDATA[
    .fil0 {fill:black}
    .fil5 {fill:#00C1FF}
    .fil3 {fill:#A6A6A6}
    .fil4 {fill:white}
    .fil1 {fill:white}
    .fil2 {fill:white;fill-rule:nonzero}
    .fil11 {fill:url(#id0)}
    .fil14 {fill:url(#id1)}
    .fil10 {fill:url(#id2)}
    .fil12 {fill:url(#id3)}
    .fil7 {fill:url(#id4)}
    .fil8 {fill:url(#id5)}
    .fil9 {fill:url(#id6)}
    .fil13 {fill:url(#id7)}
    .fil6 {fill:url(#id8)}
    .fil15 {fill:url(#id9)}
   ]]>
  </style>
  <linearGradient id="id0" gradientUnits="userSpaceOnUse" x1="61.2648" y1="182.686" x2="58.8377" y2="189.802">
   <stop offset="0" style="stop-opacity:1; stop-color:#008DE0"/>
   <stop offset="0.0117647" style="stop-opacity:1; stop-color:#008DE0"/>
   <stop offset="0.258824" style="stop-opacity:1; stop-color:#00A7E0"/>
   <stop offset="0.509804" style="stop-opacity:1; stop-color:#00B8E0"/>
   <stop offset="0.760784" style="stop-opacity:1; stop-color:#00C4E0"/>
   <stop offset="1" style="stop-opacity:1; stop-color:#00C7E0"/>
  </linearGradient>
  <linearGradient id="id1" gradientUnits="userSpaceOnUse" x1="61.3232" y1="45.4217" x2="58.7725" y2="52.4936">
   <stop offset="0" style="stop-opacity:1; stop-color:#40B8FF"/>
   <stop offset="0.0117647" style="stop-opacity:1; stop-color:#40B9FF"/>
   <stop offset="0.258824" style="stop-opacity:1; stop-color:#40CEFF"/>
   <stop offset="0.509804" style="stop-opacity:1; stop-color:#40DDFF"/>
   <stop offset="0.760784" style="stop-opacity:1; stop-color:#40E7FF"/>
   <stop offset="1" style="stop-opacity:1; stop-color:#40EAFF"/>
  </linearGradient>
  <linearGradient id="id2" gradientUnits="userSpaceOnUse" x1="146.303" y1="148.507" x2="73.9222" y2="186.486">
   <stop offset="0" style="stop-opacity:1; stop-color:#CC2E36"/>
   <stop offset="1" style="stop-opacity:1; stop-color:#9C0E4E"/>
  </linearGradient>
  <linearGradient id="id3" gradientUnits="userSpaceOnUse" x1="193.87" y1="130.007" x2="158.49" y2="130.007">
   <stop offset="0" style="stop-opacity:1; stop-color:#E0C500"/>
   <stop offset="0.411765" style="stop-opacity:1; stop-color:#E0A600"/>
   <stop offset="0.780392" style="stop-opacity:1; stop-color:#E09100"/>
   <stop offset="1" style="stop-opacity:1; stop-color:#E08900"/>
  </linearGradient>
  <linearGradient id="id4" gradientUnits="userSpaceOnUse" x1="193.87" y1="117.6" x2="134.267" y2="117.6">
   <stop offset="0" style="stop-opacity:1; stop-color:#FFE000"/>
   <stop offset="0.411765" style="stop-opacity:1; stop-color:#FFBD00"/>
   <stop offset="0.780392" style="stop-opacity:1; stop-color:orange"/>
   <stop offset="1" style="stop-opacity:1; stop-color:#FF9C00"/>
  </linearGradient>
  <linearGradient id="id5" gradientUnits="userSpaceOnUse" x1="145.002" y1="128.149" x2="75.1134" y2="181.718">
   <stop offset="0" style="stop-opacity:1; stop-color:#FF3A44"/>
   <stop offset="1" style="stop-opacity:1; stop-color:#C31162"/>
  </linearGradient>
  <linearGradient id="id6" gradientUnits="userSpaceOnUse" x1="75.1718" y1="53.393" x2="144.933" y2="107.136">
   <stop offset="0" style="stop-opacity:1; stop-color:#32A071"/>
   <stop offset="0.0705882" style="stop-opacity:1; stop-color:#2DA771"/>
   <stop offset="0.470588" style="stop-opacity:1; stop-color:#15CF74"/>
   <stop offset="0.8" style="stop-opacity:1; stop-color:#06E775"/>
   <stop offset="1" style="stop-opacity:1; stop-color:#00F076"/>
  </linearGradient>
  <linearGradient id="id7" gradientUnits="userSpaceOnUse" x1="193.87" y1="105.197" x2="158.487" y2="105.197">
   <stop offset="0" style="stop-opacity:1; stop-color:#FFE840"/>
   <stop offset="0.411765" style="stop-opacity:1; stop-color:#FFCE40"/>
   <stop offset="0.780392" style="stop-opacity:1; stop-color:#FFBC40"/>
   <stop offset="1" style="stop-opacity:1; stop-color:#FFB540"/>
  </linearGradient>
  <linearGradient id="id8" gradientUnits="userSpaceOnUse" x1="124.318" y1="63.7022" x2="68.426" y2="171.491">
   <stop offset="0" style="stop-opacity:1; stop-color:#00A0FF"/>
   <stop offset="0.0117647" style="stop-opacity:1; stop-color:#00A1FF"/>
   <stop offset="0.258824" style="stop-opacity:1; stop-color:#00BEFF"/>
   <stop offset="0.509804" style="stop-opacity:1; stop-color:#00D2FF"/>
   <stop offset="0.760784" style="stop-opacity:1; stop-color:#00DFFF"/>
   <stop offset="1" style="stop-opacity:1; stop-color:#00E3FF"/>
  </linearGradient>
  <linearGradient id="id9" gradientUnits="userSpaceOnUse" x1="74.0767" y1="48.7791" x2="146.148" y2="87.0396">
   <stop offset="0" style="stop-opacity:1; stop-color:#65B895"/>
   <stop offset="0.0705882" style="stop-opacity:1; stop-color:#62BD95"/>
   <stop offset="0.470588" style="stop-opacity:1; stop-color:#50DB97"/>
   <stop offset="0.8" style="stop-opacity:1; stop-color:#44ED98"/>
   <stop offset="1" style="stop-opacity:1; stop-color:#40F498"/>
  </linearGradient>
 </defs>
 <g id="Layer_x0020_1">
  <metadata id="CorelCorpID_0Corel-Layer"/>
  <g id="_1101469264">
   <g>
    <path class="fil0" d="M1609 234l-727 0c-16,0 -29,-13 -29,-29l0 -175c0,-16 13,-29 29,-29l727 0c16,0 29,13 29,29l0 175c0,16 -13,29 -29,29l0 0zm0 0l0 0 0 0z"/>
   </g>
   <g id="_1101462800">
    <path class="fil1" d="M986 75c9,-2 17,4 26,5 9,-1 17,-6 26,-6 10,0 19,5 25,13 -9,6 -16,17 -14,29 0,10 9,18 18,23 -5,12 -12,25 -23,33 -11,7 -22,-6 -34,-3 -5,1 -11,3 -16,5l-5 0c-4,-2 -7,-4 -10,-7 -13,-13 -21,-30 -23,-48l0 -10c1,-16 13,-32 30,-34zm50 -32l3 0c1,16 -12,32 -28,31 0,-14 11,-28 25,-31z"/>
    <path class="fil2" d="M1110 83l0 -35 12 0c3,0 5,0 7,0 1,1 3,2 5,3 1,1 3,3 4,6 1,2 1,5 1,8 0,3 0,5 -1,7 0,2 -1,4 -2,5 -1,1 -2,2 -3,3 -2,1 -3,2 -5,2 -1,0 -3,1 -5,1l-13 0zm5 -5l7 0c3,0 4,0 6,0 1,-1 2,-1 3,-2 1,-1 2,-3 2,-4 1,-2 1,-4 1,-7 0,-4 0,-6 -1,-8 -2,-2 -3,-4 -5,-4 -1,-1 -3,-1 -6,-1l-7 0 0 26z"/>
    <path id="1" class="fil2" d="M1147 70c0,-5 1,-8 4,-10 2,-2 4,-3 7,-3 4,0 7,1 9,3 2,3 3,6 3,10 0,3 0,5 -1,7 -1,2 -3,4 -4,5 -2,1 -4,1 -7,1 -3,0 -6,-1 -8,-3 -2,-3 -3,-6 -3,-10zm4 0c0,3 1,6 2,7 2,2 3,3 5,3 3,0 4,-1 6,-3 1,-1 2,-4 2,-7 0,-3 -1,-6 -2,-7 -2,-2 -3,-3 -6,-3 -2,0 -3,1 -5,3 -1,1 -2,4 -2,7z"/>
    <path id="2" class="fil2" d="M1183 83l-7 -26 4 0 4 15 2 5c0,0 0,-2 1,-5l4 -15 4 0 4 15 1 5 2 -5 4 -15 4 0 -8 26 -4 0 -4 -15 -1 -5 -5 20 -5 0z"/>
    <path id="3" class="fil2" d="M1217 83l0 -26 4 0 0 4c2,-3 5,-4 8,-4 2,0 3,0 4,1 1,0 2,1 3,2 1,1 1,2 1,3 1,1 1,2 1,4l0 16 -5 0 0 -16c0,-1 0,-3 0,-4 -1,0 -1,-1 -2,-2 -1,0 -2,0 -3,0 -2,0 -3,0 -5,1 -1,1 -2,4 -2,7l0 14 -4 0z"/>
    <polygon id="4" class="fil2" points="1247,83 1247,48 1252,48 1252,83 "/>
    <path id="5" class="fil2" d="M1260 70c0,-5 2,-8 4,-10 2,-2 5,-3 8,-3 3,0 6,1 8,3 3,3 4,6 4,10 0,3 -1,5 -2,7 -1,2 -2,4 -4,5 -2,1 -4,1 -6,1 -4,0 -6,-1 -9,-3 -2,-3 -3,-6 -3,-10zm5 0c0,3 0,6 2,7 1,2 3,3 5,3 2,0 4,-1 5,-3 2,-1 2,-4 2,-7 0,-3 0,-6 -2,-7 -1,-2 -3,-3 -5,-3 -2,0 -4,1 -5,3 -2,1 -2,4 -2,7z"/>
    <path id="6" class="fil2" d="M1309 79c-2,2 -3,3 -5,3 -1,1 -3,1 -5,1 -2,0 -5,-1 -6,-2 -1,-1 -2,-3 -2,-5 0,-1 0,-2 1,-3 0,-1 1,-2 2,-3 1,-1 2,-1 3,-1 1,-1 2,-1 4,-1 3,0 6,-1 7,-1 0,-1 0,-1 0,-1 0,-2 0,-3 -1,-4 -1,-1 -3,-2 -5,-2 -2,0 -3,1 -4,1 -1,1 -2,2 -2,4l-4 0c0,-2 1,-4 1,-5 1,-1 3,-2 4,-2 2,-1 4,-1 6,-1 2,0 4,0 5,1 1,0 2,1 3,2 1,0 1,1 1,2 1,1 1,2 1,4l0 6c0,4 0,6 0,8 0,1 0,2 1,3l-5 0c0,-1 0,-2 0,-4zm-1 -9c-1,1 -4,1 -7,2 -1,0 -3,0 -3,0 -1,1 -2,1 -2,2 0,0 -1,1 -1,2 0,1 1,2 2,3 0,0 2,1 3,1 2,0 4,-1 5,-1 1,-1 2,-2 3,-3 0,-1 0,-3 0,-4l0 -2z"/>
    <path id="7" class="fil2" d="M1339 83l0 -4c-2,3 -4,4 -7,4 -2,0 -4,0 -6,-2 -1,-1 -3,-2 -4,-4 0,-2 -1,-4 -1,-7 0,-2 0,-5 1,-7 1,-2 2,-3 4,-4 2,-2 4,-2 6,-2 1,0 3,0 4,1 1,0 2,1 3,2l0 -12 4 0 0 35 -4 0zm-14 -13c0,3 1,6 2,7 2,2 3,3 5,3 2,0 4,-1 5,-3 1,-1 2,-4 2,-7 0,-3 -1,-6 -2,-7 -1,-2 -3,-3 -5,-3 -2,0 -3,1 -5,3 -1,1 -2,4 -2,7z"/>
    <path id="8" class="fil2" d="M1365 70c0,-5 1,-8 4,-10 2,-2 5,-3 8,-3 3,0 6,1 8,3 2,3 3,6 3,10 0,3 0,5 -1,7 -1,2 -2,4 -4,5 -2,1 -4,1 -6,1 -4,0 -7,-1 -9,-3 -2,-3 -3,-6 -3,-10zm4 0c0,3 1,6 2,7 2,2 4,3 6,3 2,0 4,-1 5,-3 1,-1 2,-4 2,-7 0,-3 -1,-6 -2,-7 -1,-2 -3,-3 -5,-3 -2,0 -4,1 -6,3 -1,1 -2,4 -2,7z"/>
    <path id="9" class="fil2" d="M1397 83l0 -26 4 0 0 4c2,-3 4,-4 8,-4 1,0 3,0 4,1 1,0 2,1 3,2 0,1 1,2 1,3 0,1 0,2 0,4l0 16 -4 0 0 -16c0,-1 0,-3 0,-4 -1,0 -1,-1 -2,-2 -1,0 -2,0 -3,0 -2,0 -4,0 -5,1 -1,1 -2,4 -2,7l0 14 -4 0z"/>
    <path id="10" class="fil2" d="M1450 79l1 4c-2,0 -3,0 -4,0 -1,0 -2,0 -3,-1 -1,0 -2,-1 -2,-2 0,-1 0,-2 0,-5l0 -14 -4 0 0 -4 4 0 0 -6 4 -2 0 8 4 0 0 4 -4 0 0 14c0,2 0,2 0,3 0,0 0,0 1,1 0,0 1,0 1,0 1,0 1,0 2,0z"/>
    <path id="11" class="fil2" d="M1458 83l0 -35 4 0 0 12c2,-2 4,-3 7,-3 2,0 4,0 5,1 2,1 3,2 3,3 1,1 1,3 1,6l0 16 -4 0 0 -16c0,-2 -1,-4 -2,-5 0,-1 -2,-1 -3,-1 -2,0 -3,0 -4,1 -1,0 -2,1 -2,2 -1,1 -1,3 -1,5l0 14 -4 0z"/>
    <path id="12" class="fil2" d="M1505 74l5 1c-1,3 -2,5 -4,6 -2,1 -4,2 -7,2 -4,0 -7,-1 -9,-3 -2,-3 -3,-6 -3,-10 0,-4 1,-7 3,-10 2,-2 5,-3 8,-3 4,0 7,1 9,3 2,3 3,6 3,10 0,0 0,1 0,1l-19 0c0,3 1,5 2,6 2,2 4,3 6,3 1,0 3,-1 4,-2 1,0 2,-2 2,-4zm-14 -6l14 0c0,-3 0,-4 -1,-5 -2,-2 -3,-3 -6,-3 -1,0 -3,1 -4,2 -2,2 -3,3 -3,6z"/>
    <path class="fil2" d="M1104 172l27 -70 10 0 28 70 -10 0 -8 -21 -30 0 -7 21 -10 0zm20 -28l24 0 -7 -20c-3,-6 -4,-11 -5,-14 -1,4 -3,9 -4,13l-8 21z"/>
    <path id="1" class="fil2" d="M1176 192l0 -70 8 0 0 6c1,-2 3,-4 6,-6 2,-1 5,-1 8,-1 5,0 8,1 12,3 3,2 5,5 7,9 2,4 3,9 3,14 0,5 -1,9 -3,14 -2,4 -5,7 -8,9 -4,2 -7,3 -11,3 -3,0 -6,0 -8,-1 -2,-2 -4,-3 -6,-5l0 25 -8 0zm8 -45c0,7 1,12 3,15 3,3 6,4 10,4 4,0 7,-1 10,-4 3,-4 4,-9 4,-15 0,-7 -1,-12 -4,-15 -3,-3 -6,-5 -10,-5 -3,0 -6,2 -9,5 -3,4 -4,9 -4,15z"/>
    <path id="2" class="fil2" d="M1230 192l0 -70 8 0 0 6c2,-2 4,-4 6,-6 2,-1 5,-1 9,-1 4,0 8,1 11,3 3,2 6,5 7,9 2,4 3,9 3,14 0,5 -1,9 -3,14 -2,4 -4,7 -8,9 -3,2 -7,3 -11,3 -3,0 -6,0 -8,-1 -2,-2 -4,-3 -5,-5l0 25 -9 0zm8 -45c0,7 1,12 4,15 2,3 6,4 9,4 4,0 7,-1 10,-4 3,-4 4,-9 4,-15 0,-7 -1,-12 -4,-15 -2,-3 -6,-5 -9,-5 -4,0 -7,2 -10,5 -3,4 -4,9 -4,15z"/>
    <path id="3" class="fil2" d="M1310 150l8 -1c1,4 2,6 3,9 2,2 4,4 7,5 3,2 7,2 11,2 3,0 7,0 9,-1 3,-1 5,-3 6,-5 2,-1 2,-3 2,-6 0,-2 0,-4 -2,-5 -1,-2 -3,-3 -6,-4 -2,-1 -6,-2 -12,-4 -7,-1 -11,-3 -14,-4 -3,-2 -6,-4 -7,-7 -2,-2 -3,-5 -3,-8 0,-4 1,-7 3,-10 2,-3 5,-6 9,-7 4,-2 8,-3 13,-3 5,0 10,1 14,3 3,1 7,4 9,7 2,3 3,7 3,11l-9 1c0,-5 -2,-8 -5,-10 -2,-2 -6,-4 -12,-4 -5,0 -10,1 -12,3 -3,3 -4,5 -4,8 0,2 1,4 3,6 2,2 6,3 14,5 7,2 12,3 15,5 4,1 7,4 9,7 2,3 3,6 3,10 0,3 -1,7 -3,10 -2,3 -5,6 -9,8 -4,2 -9,2 -14,2 -6,0 -11,0 -16,-2 -4,-2 -7,-5 -10,-9 -2,-3 -3,-7 -3,-12z"/>
    <path id="4" class="fil2" d="M1395 165l2 7c-3,1 -5,1 -7,1 -3,0 -5,0 -7,-1 -2,-1 -3,-3 -4,-4 -1,-2 -1,-5 -1,-11l0 -29 -6 0 0 -6 6 0 0 -13 9 -5 0 18 8 0 0 6 -8 0 0 30c0,2 0,4 0,5 0,0 1,1 2,1 0,1 1,1 3,1 1,0 2,0 3,0z"/>
    <path id="5" class="fil2" d="M1401 147c0,-9 2,-16 7,-21 5,-4 10,-5 16,-5 7,0 13,2 17,6 5,5 7,11 7,19 0,7 -1,12 -3,16 -2,3 -5,6 -8,8 -4,2 -8,3 -13,3 -7,0 -12,-2 -17,-6 -4,-5 -6,-12 -6,-20zm8 0c0,6 2,11 5,15 2,3 6,4 10,4 5,0 8,-1 11,-4 3,-4 4,-9 4,-15 0,-7 -1,-11 -4,-15 -3,-3 -6,-4 -11,-4 -4,0 -8,1 -10,4 -3,4 -5,9 -5,15z"/>
    <path id="6" class="fil2" d="M1458 172l0 -50 8 0 0 7c2,-3 4,-6 5,-7 2,-1 4,-1 6,-1 3,0 6,0 9,2l-3 8c-3,-1 -5,-2 -7,-2 -2,0 -3,1 -5,2 -1,1 -2,3 -3,5 -1,3 -1,6 -1,10l0 26 -9 0z"/>
    <path id="7" class="fil2" d="M1525 156l9 1c-1,5 -4,9 -8,12 -3,3 -8,4 -14,4 -7,0 -13,-2 -18,-6 -4,-5 -6,-11 -6,-20 0,-8 2,-15 6,-19 5,-5 10,-7 17,-7 7,0 13,2 17,6 4,5 6,12 6,20 0,0 0,1 0,2l-37 0c0,6 2,10 4,13 3,3 7,4 11,4 3,0 6,0 8,-2 2,-2 4,-4 5,-8zm-28 -14l28 0c0,-4 -1,-7 -3,-9 -3,-4 -6,-5 -10,-5 -4,0 -8,1 -10,4 -3,2 -5,6 -5,10z"/>
   </g>
   <g>
    <path class="fil3" d="M1612 0l-733 0c-17,0 -30,13 -30,29l0 177c0,16 13,29 30,29l733 0c16,0 30,-13 30,-29l0 -177c0,-16 -14,-29 -30,-29l0 0zm0 5c14,0 25,11 25,24l0 177c0,13 -11,24 -25,24l-733 0c-14,0 -25,-11 -25,-24l0 -177c0,-13 11,-24 25,-24l733 0 0 0zm0 0l0 0 0 0z"/>
   </g>
  </g>
  <g>
   <g>
    <path class="fil0" d="M762 235l-733 0c-16,0 -29,-13 -29,-29l0 -177c0,-16 13,-29 29,-29l733 0c16,0 30,13 30,29l0 177c0,16 -14,29 -30,29l0 0zm0 0l0 0 0 0z"/>
   </g>
   <g>
    <path class="fil3" d="M762 0l-733 0c-16,0 -29,13 -29,29l0 177c0,16 13,29 29,29l733 0c16,0 30,-13 30,-29l0 -177c0,-16 -14,-29 -30,-29l0 0zm0 5c14,0 25,11 25,24l0 177c0,13 -11,24 -25,24l-733 0c-13,0 -24,-11 -24,-24l0 -177c0,-13 11,-24 24,-24l733 0 0 0zm0 0l0 0 0 0z"/>
   </g>
   <path class="fil4" d="M380 128c-13,0 -25,10 -25,25 0,14 12,25 25,25 14,0 25,-11 25,-25 0,-15 -11,-25 -25,-25l0 0zm0 40c-7,0 -14,-6 -14,-15 0,-9 7,-15 14,-15 8,0 14,6 14,15 0,9 -6,15 -14,15l0 0z"/>
   <path class="fil4" d="M326 128c-14,0 -25,10 -25,25 0,14 11,25 25,25 13,0 25,-11 25,-25 0,-15 -12,-25 -25,-25zm0 40c-8,0 -14,-6 -14,-15 0,-9 6,-15 14,-15 7,0 14,6 14,15 0,9 -7,15 -14,15z"/>
   <path class="fil4" d="M261 136l0 10 25 0c-1,6 -3,10 -6,13 -3,4 -9,8 -19,8 -16,0 -28,-12 -28,-28 0,-16 12,-28 28,-28 8,0 14,3 19,7l7 -7c-6,-6 -14,-11 -26,-11 -22,0 -40,18 -40,39 0,21 18,39 40,39 11,0 20,-4 27,-11 7,-7 9,-17 9,-25 0,-2 0,-5 -1,-6l-35 0z"/>
   <path class="fil4" d="M526 144c-2,-6 -8,-16 -21,-16 -13,0 -23,10 -23,25 0,14 10,25 24,25 12,0 18,-7 21,-11l-8 -6c-3,4 -7,7 -13,7 -5,0 -9,-3 -12,-8l34 -13 -2 -3zm-34 8c0,-10 8,-14 13,-14 5,0 8,2 10,5l-23 9z"/>
   <polygon class="fil4" points="465,176 476,176 476,103 465,103 "/>
   <path class="fil4" d="M447 133l0 0c-2,-2 -7,-5 -13,-5 -13,0 -24,11 -24,25 0,14 11,25 24,25 6,0 11,-3 13,-6l0 0 0 4c0,9 -5,14 -13,14 -7,0 -11,-4 -13,-8l-9 4c3,6 10,14 22,14 13,0 24,-7 24,-26l0 -45 -11 0 0 4zm-12 35c-8,0 -14,-6 -14,-15 0,-9 6,-15 14,-15 7,0 13,6 13,15 0,9 -6,15 -13,15l0 0z"/>
   <path class="fil4" d="M578 103l-26 0 0 73 10 0 0 -27 16 0c12,0 24,-9 24,-23 0,-14 -12,-23 -24,-23l0 0zm0 35l-16 0 0 -25 16 0c8,0 13,7 13,13 0,5 -5,12 -13,12z"/>
   <path class="fil4" d="M646 128c-8,0 -16,3 -20,11l10 4c2,-4 6,-5 10,-5 5,0 11,3 11,9l0 1c-2,-1 -6,-3 -11,-3 -11,0 -21,6 -21,17 0,9 8,16 18,16 7,0 11,-4 14,-7l0 0 0 5 11 0 0 -28c0,-13 -10,-20 -22,-20zm-2 40c-3,0 -8,-2 -8,-6 0,-6 6,-8 11,-8 5,0 7,1 10,2 -1,7 -6,12 -13,12z"/>
   <polygon class="fil4" points="706,129 694,161 693,161 680,129 669,129 688,174 677,199 688,199 719,129 "/>
   <polygon class="fil4" points="608,176 619,176 619,103 608,103 "/>
   <path class="fil5" d="M62 45c-2,2 -4,5 -4,9l0 -1 0 130 0 -1c0,3 1,6 3,8l1 0 0 0c1,2 3,2 5,2 2,0 4,0 6,-2l85 -48 30 -17c3,-2 6,-5 6,-7l0 0c0,-3 -3,-6 -6,-8l-30 -17 -85 -48c-2,-1 -4,-2 -6,-2 -2,0 -4,1 -5,2l0 0z"/>
   <path class="fil6" d="M62 190l-1 0c-2,-2 -3,-5 -3,-8l0 1 0 -130 0 1c0,-4 2,-7 4,-9l72 73 -72 72z"/>
   <path class="fil7" d="M158 142l-24 -24 24 -25 30 17c3,2 6,5 6,8l0 0c0,2 -3,5 -6,7l-30 17m0 0l0 0 0 0z"/>
   <path class="fil8" d="M67 192c-2,0 -4,0 -5,-2l0 0 72 -72 24 24 -85 48c-2,2 -4,2 -6,2z"/>
   <path class="fil9" d="M134 118l-72 -73c1,-1 3,-2 5,-2 2,0 4,1 6,2l85 48 -24 25m0 0l0 0 0 0z"/>
   <path class="fil10" d="M67 193c-2,0 -4,-1 -5,-2l0 0c0,0 -1,0 -1,0 0,0 1,0 1,0 0,0 0,0 0,0 0,0 0,0 0,0l-1 0c0,0 0,0 0,0l1 -1c1,2 3,2 5,2 2,0 4,0 6,-2l85 -48 1 0 -1 1 -85 48c-2,1 -4,2 -6,2 0,0 0,0 0,0 0,0 0,0 0,0m0 0l0 0 0 0z"/>
   <path class="fil11" d="M61 191c-2,-2 -3,-5 -3,-8l0 -1c0,3 1,6 3,8l1 0 -1 1m0 0l0 0 0 0z"/>
   <path class="fil12" d="M159 142l-1 0 30 -17c3,-2 6,-5 6,-7 0,1 0,2 -1,3 -1,2 -3,4 -5,5l-29 16z"/>
   <path class="fil13" d="M194 118c0,-3 -3,-6 -6,-8l-30 -17 1 0 0 0 29 16c4,2 6,6 6,9z"/>
   <path class="fil14" d="M58 54l0 -1c0,-1 0,-1 1,-1l0 0c0,0 0,0 0,0l0 0c0,-4 1,-6 2,-8l1 1c-2,2 -4,5 -4,9z"/>
   <path class="fil15" d="M158 93l-85 -48c-2,-1 -4,-2 -6,-2 -2,0 -4,1 -5,2l-1 -1c0,0 0,0 0,0 2,-1 3,-2 5,-2l0 0c2,0 5,1 7,2l86 49 0 0 -1 0m0 0l0 0 0 0z"/>
   <path class="fil2" d="M261 64l16 0c0,0 0,0 0,0 0,1 0,1 0,1 0,6 -1,10 -4,13 -3,3 -7,5 -12,5 -5,0 -10,-2 -13,-5 -4,-4 -5,-8 -5,-13 0,-6 1,-10 5,-13 3,-4 8,-6 13,-6 3,0 6,1 8,2 2,1 5,3 6,6l-5 3c-1,-1 -2,-2 -4,-3 -1,-1 -3,-1 -4,-1 -4,0 -7,1 -9,3 -2,2 -3,5 -3,9 0,3 1,6 3,8 2,2 5,3 9,3 2,0 4,0 5,-1 2,-1 3,-3 3,-5l0 0 -9 0 0 -6z"/>
   <polygon id="1" class="fil2" points="283,82 283,47 304,47 304,53 291,53 291,61 304,61 304,67 291,67 291,76 304,76 304,82 "/>
   <polygon id="2" class="fil2" points="324,54 324,82 317,82 317,54 308,54 308,47 333,47 333,54 "/>
   <polygon id="3" class="fil2" points="353,82 353,47 360,47 360,82 "/>
   <polygon id="4" class="fil2" points="381,54 381,82 373,82 373,54 365,54 365,47 389,47 389,54 "/>
   <path id="5" class="fil2" d="M445 65c0,2 0,5 -1,7 -1,2 -3,4 -4,6 -2,1 -4,3 -7,4 -2,1 -4,1 -7,1 -2,0 -4,0 -6,-1 -2,-1 -4,-2 -5,-3 -3,-2 -4,-4 -5,-6 -2,-3 -2,-6 -2,-8 0,-3 0,-5 1,-7 1,-3 2,-5 4,-6 2,-2 4,-3 6,-4 3,-1 5,-2 7,-2 3,0 5,1 7,2 3,1 5,2 7,4 1,1 3,3 4,6 1,2 1,4 1,7zm-19 11c4,0 6,-1 8,-3 2,-2 3,-5 3,-8 0,-4 -1,-6 -3,-9 -2,-2 -4,-3 -8,-3 -3,0 -5,1 -7,3 -3,3 -4,5 -4,9 0,3 1,6 4,8 2,2 4,3 7,3z"/>
   <path id="6" class="fil2" d="M451 82l0 -35 8 0 15 20c1,1 1,2 2,3 0,1 1,2 2,4 -1,-1 -1,-2 -1,-3 0,-2 0,-3 0,-4l0 -20 7 0 0 35 -7 0 -16 -21c0,0 -1,-1 -1,-2 -1,-1 -2,-2 -2,-4 0,1 0,2 0,3 0,1 0,3 0,4l0 20 -7 0z"/>
  </g>
 </g>
</svg>
