<?xml version="1.0" encoding="UTF-8"?>
<!DOCTYPE svg PUBLIC "-//W3C//DTD SVG 1.1//EN" "http://www.w3.org/Graphics/SVG/1.1/DTD/svg11.dtd">
<!-- Creator: CorelDRAW X7 -->
<svg xmlns="http://www.w3.org/2000/svg" xml:space="preserve" width="8.26772in" height="11.6929in" version="1.1" style="shape-rendering:geometricPrecision; text-rendering:geometricPrecision; image-rendering:optimizeQuality; fill-rule:evenodd; clip-rule:evenodd"
viewBox="0 0 8268 11693"
 xmlns:xlink="http://www.w3.org/1999/xlink">
 <defs>
  <style type="text/css">
   <![CDATA[
    .fil0 {fill:black}
    .fil3 {fill:#A6A6A6}
    .fil1 {fill:white}
    .fil2 {fill:white;fill-rule:nonzero}
   ]]>
  </style>
 </defs>
 <g id="Layer_x0020_1">
  <metadata id="CorelCorpID_0Corel-Layer"/>
  <g id="_1626039008">
   <g>
    <path class="fil0" d="M5218 6340l-2647 0c-58,0 -106,-47 -106,-106l0 -636c0,-59 48,-106 106,-106l2647 0c59,0 106,47 106,106l0 636c0,59 -47,106 -106,106l0 0zm0 0l0 0 0 0z"/>
   </g>
   <g id="_1626039392">
    <path class="fil1" d="M2949 5760c34,-6 64,15 97,21 31,-7 59,-25 92,-22 36,-1 70,18 92,45 -34,22 -59,62 -52,105 3,39 33,68 65,86 -17,44 -41,90 -82,117 -40,26 -80,-20 -122,-10 -21,4 -41,13 -61,19l-17 0c-14,-6 -27,-13 -37,-24 -46,-47 -75,-111 -83,-177l0 -35c4,-59 47,-117 108,-125zm184 -114l11 0c2,56 -44,114 -103,113 -1,-54 40,-103 92,-113z"/>
    <path class="fil2" d="M3403 5788l0 -126 43 0c10,0 18,1 23,2 7,1 13,4 18,9 7,5 12,13 15,21 4,9 5,19 5,31 0,9 -1,18 -3,25 -2,7 -5,14 -9,18 -3,5 -7,9 -11,12 -4,3 -9,5 -15,6 -6,2 -13,2 -21,2l-45 0zm17 -14l27 0c8,0 14,-1 19,-3 5,-1 9,-4 11,-6 4,-4 8,-10 10,-16 2,-7 3,-15 3,-25 0,-13 -2,-23 -6,-30 -5,-7 -10,-12 -16,-15 -5,-1 -12,-2 -22,-2l-26 0 0 97z"/>
    <path id="1" class="fil2" d="M3535 5743c0,-17 5,-30 14,-38 8,-7 18,-10 29,-10 13,0 23,4 31,12 8,8 12,20 12,34 0,12 -2,21 -5,28 -4,7 -9,12 -16,16 -6,3 -14,5 -22,5 -13,0 -23,-4 -31,-12 -8,-8 -12,-20 -12,-35zm16 0c0,11 3,20 8,26 5,6 11,9 19,9 8,0 14,-3 19,-9 6,-6 8,-15 8,-27 0,-11 -2,-20 -8,-26 -5,-5 -11,-8 -19,-8 -8,0 -14,3 -19,8 -5,6 -8,15 -8,27z"/>
    <path id="2" class="fil2" d="M3668 5788l-27 -91 16 0 14 53 6 19c0,-1 1,-7 4,-19l15 -53 16 0 14 53 4 17 5 -17 16 -53 15 0 -28 91 -17 0 -14 -54 -4 -16 -18 70 -17 0z"/>
    <path id="3" class="fil2" d="M3792 5788l0 -91 14 0 0 13c7,-10 16,-15 29,-15 5,0 11,1 15,3 5,2 8,4 11,8 2,3 3,7 4,11 1,3 1,8 1,15l0 56 -15 0 0 -55c0,-7 -1,-11 -2,-14 -1,-4 -3,-6 -6,-8 -4,-2 -7,-3 -11,-3 -7,0 -13,2 -17,7 -5,4 -8,12 -8,23l0 50 -15 0z"/>
    <polygon id="4" class="fil2" points="3902,5788 3902,5662 3918,5662 3918,5788 "/>
    <path id="5" class="fil2" d="M3949 5743c0,-17 4,-30 14,-38 8,-7 17,-10 29,-10 12,0 23,4 31,12 8,8 12,20 12,34 0,12 -2,21 -6,28 -3,7 -8,12 -15,16 -7,3 -14,5 -22,5 -13,0 -24,-4 -31,-12 -8,-8 -12,-20 -12,-35zm16 0c0,11 2,20 7,26 5,6 12,9 20,9 7,0 14,-3 19,-9 5,-6 8,-15 8,-27 0,-11 -3,-20 -8,-26 -5,-5 -12,-8 -19,-8 -8,0 -15,3 -20,8 -5,6 -7,15 -7,27z"/>
    <path id="6" class="fil2" d="M4125 5777c-6,5 -11,8 -16,10 -6,2 -11,3 -18,3 -10,0 -17,-2 -23,-7 -5,-5 -8,-11 -8,-19 0,-4 1,-8 3,-12 2,-4 5,-7 8,-9 3,-2 7,-4 11,-5 3,-1 8,-2 14,-2 13,-2 22,-4 28,-6 0,-2 0,-3 0,-4 0,-6 -2,-10 -4,-13 -4,-4 -10,-5 -18,-5 -7,0 -13,1 -16,4 -4,2 -6,7 -8,13l-15 -2c1,-6 3,-12 7,-16 3,-4 7,-7 13,-9 6,-2 13,-3 21,-3 8,0 14,1 19,3 5,1 9,4 11,7 2,2 4,6 5,10 0,3 1,8 1,14l0 21c0,14 0,23 1,27 0,4 2,8 3,11l-16 0c-1,-3 -2,-7 -3,-11zm-1 -35c-6,3 -14,5 -25,6 -7,1 -11,2 -14,3 -3,2 -5,3 -6,5 -2,3 -2,5 -2,8 0,4 1,7 4,10 4,3 8,4 14,4 6,0 11,-1 16,-4 5,-2 8,-6 10,-10 2,-4 3,-9 3,-16l0 -6z"/>
    <path id="7" class="fil2" d="M4235 5788l0 -11c-6,9 -14,13 -25,13 -8,0 -14,-2 -20,-6 -7,-4 -11,-9 -15,-17 -3,-7 -5,-15 -5,-24 0,-9 2,-18 5,-25 3,-8 8,-13 14,-17 6,-4 12,-6 20,-6 6,0 10,1 15,3 4,3 8,6 10,9l0 -45 16 0 0 126 -15 0zm-49 -45c0,11 3,20 8,26 5,6 10,9 17,9 7,0 13,-3 18,-9 4,-5 7,-14 7,-25 0,-12 -3,-22 -8,-28 -4,-5 -10,-8 -18,-8 -6,0 -12,2 -17,8 -4,6 -7,15 -7,27z"/>
    <path id="8" class="fil2" d="M4330 5743c0,-17 5,-30 14,-38 8,-7 18,-10 29,-10 13,0 23,4 31,12 8,8 12,20 12,34 0,12 -2,21 -5,28 -4,7 -9,12 -16,16 -7,3 -14,5 -22,5 -13,0 -23,-4 -31,-12 -8,-8 -12,-20 -12,-35zm16 0c0,11 3,20 8,26 5,6 11,9 19,9 8,0 14,-3 19,-9 6,-6 8,-15 8,-27 0,-11 -2,-20 -8,-26 -5,-5 -11,-8 -19,-8 -8,0 -14,3 -19,8 -5,6 -8,15 -8,27z"/>
    <path id="9" class="fil2" d="M4447 5788l0 -91 14 0 0 13c6,-10 16,-15 29,-15 5,0 10,1 15,3 5,2 8,4 10,8 3,3 4,7 5,11 1,3 1,8 1,15l0 56 -15 0 0 -55c0,-7 -1,-11 -2,-14 -1,-4 -4,-6 -7,-8 -3,-2 -6,-3 -10,-3 -7,0 -13,2 -17,7 -5,4 -8,12 -8,23l0 50 -15 0z"/>
    <path id="10" class="fil2" d="M4640 5775l2 13c-4,1 -8,2 -11,2 -6,0 -10,-1 -13,-3 -3,-2 -6,-4 -7,-7 -1,-3 -2,-9 -2,-18l0 -53 -11 0 0 -12 11 0 0 -23 16 -9 0 32 15 0 0 12 -15 0 0 53c0,5 0,8 1,9 0,1 1,2 2,3 2,1 3,1 6,1 1,0 4,0 6,0z"/>
    <path id="11" class="fil2" d="M4668 5788l0 -126 16 0 0 45c7,-8 16,-12 27,-12 7,0 13,1 18,4 5,2 8,6 10,11 3,5 4,11 4,20l0 58 -16 0 0 -58c0,-7 -2,-13 -5,-16 -3,-4 -8,-6 -14,-6 -5,0 -9,1 -13,4 -4,2 -7,5 -9,9 -1,5 -2,10 -2,17l0 50 -16 0z"/>
    <path id="12" class="fil2" d="M4842 5759l16 2c-3,9 -7,16 -14,22 -7,5 -16,7 -26,7 -14,0 -24,-4 -32,-12 -8,-8 -12,-20 -12,-35 0,-15 4,-27 12,-35 8,-9 18,-13 31,-13 12,0 22,4 30,12 7,9 11,20 11,35 0,1 0,3 0,5l-68 0c0,10 3,17 8,23 6,5 12,8 20,8 5,0 10,-2 14,-5 4,-3 7,-8 10,-14zm-51 -25l51 0c-1,-8 -3,-14 -6,-18 -5,-5 -11,-8 -19,-8 -7,0 -13,2 -18,7 -5,4 -8,11 -8,19z"/>
    <path class="fil2" d="M3379 6115l98 -254 37 0 104 254 -38 0 -30 -77 -107 0 -28 77 -36 0zm74 -104l87 0 -27 -71c-8,-21 -14,-39 -18,-53 -4,16 -8,33 -14,49l-28 75z"/>
    <path id="1" class="fil2" d="M3641 6186l0 -255 28 0 0 24c7,-9 15,-17 23,-21 9,-5 19,-7 31,-7 16,0 29,4 42,12 12,8 21,19 27,34 6,15 9,31 9,49 0,18 -3,35 -10,51 -7,15 -17,26 -30,34 -13,8 -26,12 -40,12 -11,0 -20,-2 -28,-6 -9,-5 -16,-10 -21,-17l0 90 -31 0zm28 -162c0,24 5,41 15,53 9,11 21,17 35,17 13,0 25,-6 35,-18 10,-12 15,-30 15,-54 0,-24 -5,-42 -15,-53 -9,-12 -21,-18 -34,-18 -13,0 -25,7 -35,19 -11,12 -16,30 -16,54z"/>
    <path id="2" class="fil2" d="M3839 6186l0 -255 28 0 0 24c7,-9 15,-17 23,-21 8,-5 19,-7 31,-7 16,0 29,4 41,12 12,8 22,19 28,34 6,15 9,31 9,49 0,18 -3,35 -10,51 -7,15 -17,26 -30,34 -13,8 -26,12 -40,12 -11,0 -20,-2 -28,-6 -9,-5 -16,-10 -21,-17l0 90 -31 0zm28 -162c0,24 5,41 15,53 9,11 21,17 34,17 14,0 26,-6 36,-18 10,-12 15,-30 15,-54 0,-24 -5,-42 -15,-53 -9,-12 -21,-18 -34,-18 -13,0 -25,7 -35,19 -11,12 -16,30 -16,54z"/>
    <path id="3" class="fil2" d="M4128 6034l32 -3c2,12 5,23 11,31 5,8 14,15 25,20 12,5 25,8 39,8 13,0 25,-2 34,-6 10,-4 18,-9 22,-16 5,-7 8,-14 8,-22 0,-8 -3,-15 -7,-21 -5,-5 -13,-10 -23,-15 -7,-2 -22,-6 -46,-12 -23,-6 -39,-11 -49,-16 -12,-6 -21,-14 -27,-24 -6,-9 -9,-20 -9,-31 0,-13 4,-25 11,-37 7,-11 18,-19 32,-25 14,-6 30,-9 47,-9 19,0 35,3 50,9 14,6 25,15 33,27 8,12 12,25 13,40l-33 3c-2,-16 -7,-28 -17,-37 -10,-8 -25,-12 -45,-12 -20,0 -35,4 -45,11 -9,8 -14,17 -14,27 0,10 4,17 10,23 7,6 24,12 51,18 28,6 46,12 57,16 14,7 25,16 32,26 8,11 11,23 11,36 0,14 -4,27 -12,39 -7,12 -18,21 -33,28 -15,6 -31,10 -49,10 -23,0 -42,-4 -58,-10 -16,-7 -28,-17 -37,-31 -8,-13 -13,-28 -14,-45z"/>
    <path id="4" class="fil2" d="M4441 6087l4 28c-9,2 -16,3 -23,3 -12,0 -20,-2 -27,-6 -6,-3 -10,-8 -13,-14 -2,-6 -4,-18 -4,-37l0 -106 -23 0 0 -24 23 0 0 -46 32 -19 0 65 31 0 0 24 -31 0 0 108c0,9 0,15 1,17 1,3 3,5 6,6 2,2 6,3 10,3 4,0 8,-1 14,-2z"/>
    <path id="5" class="fil2" d="M4460 6023c0,-34 10,-59 29,-76 16,-13 35,-20 58,-20 25,0 46,8 62,25 16,16 24,39 24,68 0,24 -3,43 -11,56 -7,14 -17,24 -31,32 -13,8 -28,11 -44,11 -26,0 -47,-8 -63,-25 -16,-16 -24,-40 -24,-71zm32 0c0,24 5,41 16,53 10,12 23,18 39,18 15,0 28,-6 39,-18 10,-12 15,-30 15,-54 0,-23 -5,-40 -16,-52 -10,-11 -23,-17 -38,-17 -16,0 -29,6 -39,17 -11,12 -16,30 -16,53z"/>
    <path id="6" class="fil2" d="M4669 6115l0 -184 29 0 0 28c7,-13 13,-22 20,-26 6,-4 12,-6 20,-6 10,0 21,3 32,10l-11 29c-8,-5 -15,-7 -23,-7 -7,0 -13,2 -18,6 -6,4 -10,10 -12,17 -3,11 -5,24 -5,37l0 96 -32 0z"/>
    <path id="7" class="fil2" d="M4914 6056l33 4c-5,19 -15,33 -28,44 -14,10 -32,15 -53,15 -27,0 -49,-8 -64,-25 -16,-16 -24,-39 -24,-69 0,-31 8,-55 24,-73 16,-17 37,-25 62,-25 25,0 45,8 60,25 16,17 24,40 24,71 0,2 0,4 0,8l-138 0c1,20 7,36 17,47 11,10 23,16 39,16 11,0 21,-3 29,-9 8,-6 15,-16 19,-29zm-102 -51l103 0c-2,-15 -6,-27 -12,-35 -10,-12 -23,-18 -39,-18 -14,0 -26,5 -36,15 -10,9 -15,22 -16,38z"/>
   </g>
   <g>
    <path class="fil3" d="M5231 5488l-2673 0c-59,0 -107,48 -107,107l0 642c0,59 48,107 107,107l2673 0c59,0 107,-48 107,-107l0 -642c0,-59 -48,-107 -107,-107l0 0zm0 17c50,0 90,40 90,90l0 642c0,50 -40,90 -90,90l-2673 0c-49,0 -90,-40 -90,-90l0 -642c0,-50 41,-90 90,-90l2673 0 0 0zm0 0l0 0 0 0z"/>
   </g>
  </g>
 </g>
</svg>
