<?xml version="1.0"?>
<svg xmlns="http://www.w3.org/2000/svg" xmlns:xlink="http://www.w3.org/1999/xlink" xmlns:svgjs="http://svgjs.com/svgjs" version="1.1" width="512" height="512" x="0" y="0" viewBox="0 0 512 512" style="enable-background:new 0 0 512 512" xml:space="preserve" class=""><g><g xmlns="http://www.w3.org/2000/svg"><path d="m408 280.5c-6.442 0-12.747.6-18.865 1.738l-27.325-79.701c-.01-.028-.019-.056-.029-.084l-28.781-83.953h68.05c3.907 5.287 8.549 13.517 7.399 20.389-.923 5.515-6.023 10.628-15.157 15.195-7.41 3.705-10.413 12.715-6.708 20.125 3.705 7.409 12.715 10.412 20.125 6.708 22.77-11.385 29.623-26.558 31.363-37.282 4.245-26.154-17.025-48.302-19.465-50.741-2.814-2.814-6.629-4.394-10.607-4.394h-96c-4.844 0-9.39 2.339-12.206 6.281-2.815 3.942-3.554 9.001-1.983 13.583l28.845 84.135h-103.656v-19c0-24.813-20.187-45-45-45h-19v94h22.713l-38.791 65.643c-12.015-4.922-25.155-7.643-38.921-7.643-57.346 0-104 46.206-104 103 0 27.512 10.892 53.555 30.668 73.332s45.819 30.669 73.331 30.669c51.75 0 94.702-38.737 101.925-89h27.075v33c0 8.284 6.716 15 15 15h24c8.284 0 15-6.716 15-15s-6.716-15-15-15h-9v-21.199l81.558-150.583 16.206 47.27c-33.095 17.153-55.764 51.733-55.764 91.512 0 57.346 46.206 104 103 104 27.512 0 53.556-10.891 73.332-30.668s30.668-45.82 30.668-73.332c0-56.794-46.654-103-104-103zm-304 118.001c-8.284 0-15-6.716-15-15s6.716-15 15-15 15 6.716 15 15-6.716 15-15 15zm139.398-30.001h-37.494c-3.833-26.152-17.528-49.14-37.177-65.057l47.832-80.943h105.915zm164.602 30.001c-8.284 0-15-6.716-15-15s6.716-15 15-15 15 6.716 15 15-6.716 15-15 15z" fill="#ffffff" data-original="#000000" style="" class=""/><path d="m9.161 221.321c1.795.759 3.768 1.179 5.839 1.179h113 1v-94h-129v79c0 6.213 3.778 11.544 9.161 13.821z" fill="#ffffff" data-original="#000000" style="" class=""/><path d="m129 24.5h-114c-8.284 0-15 6.716-15 15v59h129z" fill="#ffffff" data-original="#000000" style="" class=""/></g></g></svg>
