<?xml version="1.0"?>
<svg xmlns="http://www.w3.org/2000/svg" xmlns:xlink="http://www.w3.org/1999/xlink" xmlns:svgjs="http://svgjs.com/svgjs" version="1.1" width="512" height="512" x="0" y="0" viewBox="0 0 512 512" style="enable-background:new 0 0 512 512" xml:space="preserve"><g><g xmlns="http://www.w3.org/2000/svg" id="solid_1" data-name="solid 1"><path d="M468.682,375.656l-.187-.074A106.011,106.011,0,0,0,448,369.7V288h8a8,8,0,0,0,8-8V248a8,8,0,0,0-8-8H416a23.888,23.888,0,0,0-15.225,5.462l-11.118-11.119A8,8,0,0,0,384,232H324l-9.458-12.61a25.52,25.52,0,0,0-8.421-7.212,30.29,30.29,0,0,0-2.063-2.526A24.245,24.245,0,0,0,312,191.7V176a8,8,0,0,0,8-8v-8a32,32,0,0,0-64,0v8a8,8,0,0,0,8,8v25.013A32.056,32.056,0,0,0,240,232v32H224V160a16.019,16.019,0,0,0-16-16H32a16.019,16.019,0,0,0-16,16V336a16.019,16.019,0,0,0,16,16H147.719l25.634,38.452a88.757,88.757,0,0,0-12.088,13.259,55.61,55.61,0,0,0-9.84,16.931A87.484,87.484,0,0,0,144,456a8,8,0,0,0,8,8h5.4a56.007,56.007,0,0,0,101.2,0H371.716a77.347,77.347,0,0,0,9.39-.592A56.011,56.011,0,0,0,485.667,424H488a8,8,0,0,0,8-8A43.246,43.246,0,0,0,468.682,375.656Zm-6.123,14.783.187.075A27.308,27.308,0,0,1,478.825,408h-33.56A76.621,76.621,0,0,0,448,387.716v-1.71A90.156,90.156,0,0,1,462.559,390.439Zm-36.9,51.218a77.254,77.254,0,0,0,8.039-9.472,8,8,0,1,1-9.2,10.573C424.885,442.389,425.279,442.035,425.657,441.657ZM257.677,424a56.258,56.258,0,0,0-40.618-38.434A72,72,0,0,1,232,384h64v10.5A41.23,41.23,0,0,0,272.779,424Zm-84.013-10.145a40.061,40.061,0,0,1,67,10.145H167.509A72.087,72.087,0,0,1,173.664,413.855ZM32,280H296v16H32Zm192,32h16v12a27.838,27.838,0,0,0,2.707,12H224Zm0,56a8,8,0,0,1,0-16h72v16Zm72,45.556V424h-6.7A25.26,25.26,0,0,1,296,413.556ZM312,416h22.111L344,420.944v3.025c-.354.009-.707.031-1.062.031H312Zm43.578-7.155-11.189-5.6,5.434-70.642A34,34,0,0,0,315.923,296H312V280h52.687l5.656,5.657A8,8,0,0,0,376,288h24a7.951,7.951,0,0,0,4.226-1.216,50.867,50.867,0,0,0-15.059,32.6l-4.192,65.195A42,42,0,0,1,360,420.353V416A8,8,0,0,0,355.578,408.845ZM416,256h32v16H416a8,8,0,0,1,0-16Zm-24,3.313V272H379.313l-5.656-5.657A8,8,0,0,0,368,264h-8V248h20.687ZM313.6,244.8A8,8,0,0,0,320,248h24v16H300.53l-14.619-24.365a9.536,9.536,0,0,1,1.436-11.668,9.551,9.551,0,0,1,14.4,1.023ZM296,176v15.7a8.313,8.313,0,0,1-8.3,8.3H280V176Zm-40,56a16.019,16.019,0,0,1,16-16h4.723c-.232.215-.465.429-.69.653a25.514,25.514,0,0,0-3.842,31.214L281.871,264H256ZM136,160v41.052l-11.563-7.708a8,8,0,0,0-8.875,0L104,201.052V160Zm30.948,192h34.428a23.932,23.932,0,0,0,2.266,20.689,87.737,87.737,0,0,0-17.439,8.194ZM208,480a40.045,40.045,0,0,1-32.011-16H240A40.089,40.089,0,0,1,208,480Zm-47.445-32h-.114a71.672,71.672,0,0,1,1.351-8H342.938a58.125,58.125,0,0,0,58-54.394l4.187-65.138A35.122,35.122,0,0,1,432,288.933v98.783a60.295,60.295,0,0,1-47.273,58.867c-.123.023-.245.053-.368.082A60.752,60.752,0,0,1,371.716,448S161.966,447.62,160.555,448ZM472,440a40.016,40.016,0,0,1-74.855,19.671,75.336,75.336,0,0,0,14.516-6.952A23.989,23.989,0,1,0,449.869,424h18.782A40.036,40.036,0,0,1,472,440Z" fill="#ffffff" data-original="#000000" style=""/><path d="M128.131,39.021a33.646,33.646,0,0,0-16.26,0h0A33.475,33.475,0,0,0,86.477,71.543,48.428,48.428,0,0,0,97.05,101.685L120,130.372l22.95-28.687a48.428,48.428,0,0,0,10.573-30.142A33.475,33.475,0,0,0,128.131,39.021ZM120,83.505a14.939,14.939,0,1,1,14.939-14.939A14.938,14.938,0,0,1,120,83.505Z" fill="#ffffff" data-original="#000000" style=""/></g></g></svg>
