<svg enable-background="new 0 0 24 24" height="512" viewBox="0 0 24 24" width="512" xmlns="http://www.w3.org/2000/svg"><path d="m21 4.25c-.414 0-.75-.336-.75-.75v-2.75c0-.414.336-.75.75-.75s.75.336.75.75v2.75c0 .414-.336.75-.75.75z" fill="#607d8b"/><path d="m3 4.25c-.414 0-.75-.336-.75-.75v-2.75c0-.414.336-.75.75-.75s.75.336.75.75v2.75c0 .414-.336.75-.75.75z" fill="#607d8b"/><path d="m3 0c-.414 0-.75.336-.75.75v2.75c0 .414.336.75.75.75z" fill="#546d79"/><path d="m21 0c-.414 0-.75.336-.75.75v2.75c0 .414.336.75.75.75z" fill="#546d79"/><path d="m19.501 18-.124-.01c-.408-.068-.685-.454-.617-.863l.77-4.64c.088-.514-.149-1.031-.591-1.292l-4.348-2.548c-.357-.21-.478-.669-.269-1.026.209-.358.668-.477 1.026-.269l4.35 2.55c.977.577 1.501 1.716 1.31 2.835l-.769 4.636c-.06.367-.378.627-.738.627z" fill="#607d8b"/><path d="m4.499 18c-.36 0-.678-.26-.739-.627l-.77-4.64c-.19-1.115.334-2.253 1.308-2.829l4.392-2.581c.357-.211.817-.091 1.027.267.21.357.091.816-.267 1.026l-4.391 2.58c-.439.26-.677.777-.59 1.287l.771 4.644c.067.409-.209.795-.617.863z" fill="#607d8b"/><path d="m21.034 12h-1.516c.035.157.04.322.012.487l-.77 4.64c-.067.409.209.795.617.863l.124.01c.36 0 .678-.26.739-.627l.769-4.636c.042-.247.049-.494.025-.737z" fill="#546d79"/><path d="m4.482 12h-1.516c-.024.241-.017.488.025.733l.77 4.64c.06.367.378.627.738.627l.124-.01c.408-.068.685-.454.617-.863l-.77-4.644c-.028-.163-.023-.327.012-.483z" fill="#546d79"/><path d="m19.5 4h-2.241c-.531 0-1.025-.286-1.29-.748-.801-1.389-2.294-2.252-3.969-2.252-1.605 0-3.099.863-3.898 2.252-.265.461-.76.748-1.29.748h-2.242c-.276 0-.5.224-.5.5v2c0 .276.224.5.5.5h2.241c.53 0 1.025.287 1.29.748.8 1.389 2.294 2.252 3.969 2.252 1.604 0 3.098-.863 3.898-2.253.265-.461.76-.747 1.291-.747h2.241c.276 0 .5-.224.5-.5v-2c0-.276-.224-.5-.5-.5z" fill="#cfd8dc"/><path d="m12 1c-1.605 0-3.099.863-3.898 2.252-.265.461-.76.748-1.29.748h-2.242c-.276 0-.5.224-.5.5v2c0 .276.224.5.5.5h2.241c.53 0 1.025.287 1.29.748.789 1.369 2.252 2.228 3.899 2.251z" fill="#b4bcc0"/><path d="m3.319 2.75h-.5c-.965 0-1.75.785-1.75 1.75v2c0 .965.785 1.75 1.75 1.75h.5c.965 0 1.75-.785 1.75-1.75v-2c0-.965-.785-1.75-1.75-1.75z" fill="#607d8b"/><path d="m21.319 2.75h-.5c-.965 0-1.75.785-1.75 1.75v2c0 .965.785 1.75 1.75 1.75h.5c.965 0 1.75-.785 1.75-1.75v-2c0-.965-.785-1.75-1.75-1.75z" fill="#607d8b"/><path d="m5.069 5.5h-4v1c0 .965.785 1.75 1.75 1.75h.5c.965 0 1.75-.785 1.75-1.75z" fill="#546d79"/><path d="m23.069 5.5h-4v1c0 .965.785 1.75 1.75 1.75h.5c.965 0 1.75-.785 1.75-1.75z" fill="#546d79"/><path d="m5.25 1.5h-4.5c-.414 0-.75-.336-.75-.75s.336-.75.75-.75h4.5c.414 0 .75.336.75.75s-.336.75-.75.75z" fill="#607d8b"/><path d="m23.25 1.5h-4.5c-.414 0-.75-.336-.75-.75s.336-.75.75-.75h4.5c.414 0 .75.336.75.75s-.336.75-.75.75z" fill="#607d8b"/><path d="m6 .75h-6c0 .414.336.75.75.75h4.5c.414 0 .75-.336.75-.75z" fill="#546d79"/><path d="m23.996.75h-5.996c0 .414.336.75.75.75h4.5c.388 0 .707-.295.746-.673z" fill="#546d79"/><path d="m12.004 24v-6.162l5.996-2.919v3.326 2.512z" fill="#ffcc80"/><path d="m11.996 24v-6.162l-5.996-2.919v3.326 2.512z" fill="#ffb74d"/><path d="m6 14.916 5.994 2.922 2.334-1.134.972-.474 2.7-1.314-5.994-2.916-2.556 1.242-1.02.492z" fill="#ffa726"/><path d="m8.561 13.678 5.93 2.954v2.984l.94-.478v-2.964l-5.85-2.989z" fill="#795548"/><path d="m6 14.919v3.326 2.512l5.996 3.243v-6.162l-.001-.001-.001.001-1.469-.716z" fill="#de9f43"/><path d="m12 12.003-2.55 1.239-1.02.492-2.43 1.182 4.525 2.206 1.469.716.001-.001.005-.002v-2.444l-3.439-1.713 1.02-.493 2.419 1.236z" fill="#de9121"/><path d="m9.581 13.185-1.02.493 3.439 1.713v-.97z" fill="#694a3f"/></svg>